<?xml version="1.0" encoding="UTF-8" standalone="no"?>
<!-- Created with Inkscape (http://www.inkscape.org/) -->

<svg
   xmlns:dc="http://purl.org/dc/elements/1.1/"
   xmlns:cc="http://creativecommons.org/ns#"
   xmlns:rdf="http://www.w3.org/1999/02/22-rdf-syntax-ns#"
   xmlns:svg="http://www.w3.org/2000/svg"
   xmlns="http://www.w3.org/2000/svg"
   xmlns:xlink="http://www.w3.org/1999/xlink"
   xmlns:sodipodi="http://sodipodi.sourceforge.net/DTD/sodipodi-0.dtd"
   xmlns:inkscape="http://www.inkscape.org/namespaces/inkscape"
   id="svg4912"
   version="1.1"
   inkscape:version="0.91 r13725"
   width="64.000008"
   height="64">
  <metadata
     id="metadata4918">
    <rdf:RDF>
      <cc:Work
         rdf:about="">
        <dc:format>image/svg+xml</dc:format>
        <dc:type
           rdf:resource="http://purl.org/dc/dcmitype/StillImage" />
      </cc:Work>
    </rdf:RDF>
  </metadata>
  <defs
     id="defs4916">
    <linearGradient
       gradientUnits="userSpaceOnUse"
       y2="-7847.3823"
       x2="-965.67206"
       y1="-7788.5557"
       x1="-948.64807"
       id="linearGradient4906"
       xlink:href="#linearGradient4900"
       inkscape:collect="always" />
    <linearGradient
       id="linearGradient4900"
       inkscape:collect="always">
      <stop
         id="stop4902"
         offset="0"
         style="stop-color:#b93829;stop-opacity:1;" />
      <stop
         id="stop4904"
         offset="1"
         style="stop-color:#fd5550;stop-opacity:1" />
    </linearGradient>
  </defs>
  <sodipodi:namedview
     pagecolor="#ffffff"
     bordercolor="#666666"
     borderopacity="1"
     objecttolerance="10"
     gridtolerance="10"
     guidetolerance="10"
     inkscape:pageopacity="0"
     inkscape:pageshadow="2"
     inkscape:window-width="640"
     inkscape:window-height="480"
     id="namedview4914" />
  <inkscape:clipboard
     style="color:#000000;clip-rule:nonzero;display:inline;overflow:visible;visibility:visible;opacity:1;isolation:auto;mix-blend-mode:normal;color-interpolation:sRGB;color-interpolation-filters:linearRGB;solid-color:#000000;solid-opacity:1;fill:url(#linearGradient4906);fill-opacity:1;fill-rule:nonzero;stroke-width:1;stroke-linecap:butt;stroke-linejoin:miter;stroke-miterlimit:4;stroke-dasharray:none;stroke-dashoffset:0;stroke-opacity:1;filter-blend-mode:normal;filter-gaussianBlur-deviation:0;color-rendering:auto;image-rendering:auto;shape-rendering:auto;text-rendering:auto;enable-background:accumulate"
     min="-992.49439,8836.1698"
     max="-928.49438,8900.1698" />
  <g
     inkscape:export-ydpi="90"
     inkscape:export-xdpi="90"
     inkscape:export-filename="/media/niesoft/hard/Projects/leapp/leapp/icons/icon64.png"
     id="g4908"
     transform="translate(992.49439,7847.8076)">
    <rect
       style="opacity:1;fill:none;fill-opacity:1;stroke:none;stroke-width:22;stroke-linecap:round;stroke-linejoin:miter;stroke-miterlimit:4;stroke-dasharray:none;stroke-dashoffset:0;stroke-opacity:1"
       id="rect5842-5"
       width="63.99773"
       height="64"
       x="-992.49329"
       y="-7847.8076"
       inkscape:export-filename="/media/niesoft/hard/Projects/leapp/leapp/icons/icon64.png"
       inkscape:export-xdpi="90"
       inkscape:export-ydpi="90" />
    <path
       style="fill:url(#linearGradient4906);fill-opacity:1"
       d="m -960.68745,-7847.7927 c -0.18619,0 -0.37019,0 -0.55528,0 -0.74027,0.029 -1.48035,0.061 -2.21922,0.128 -0.73857,0.07 -1.47595,0.163 -2.21012,0.2823 -0.73398,0.1193 -1.46525,0.2648 -2.19192,0.4377 -0.72628,0.1717 -1.44835,0.3693 -2.16423,0.5931 -0.71617,0.2241 -1.42615,0.4738 -2.12842,0.75 -0.70218,0.2764 -1.39705,0.5788 -2.08273,0.9076 -0.42398,0.2037 -0.83607,0.4109 -1.23845,0.624 -0.40249,0.2124 -0.79508,0.4313 -1.17976,0.6568 -0.38449,0.2241 -0.76098,0.4572 -1.13146,0.6973 -0.37019,0.2386 -0.73418,0.488 -1.09356,0.7456 -0.35939,0.2561 -0.71448,0.5241 -1.06657,0.8011 -0.35238,0.2765 -0.70167,0.5652 -1.05026,0.8646 -0.34859,0.2998 -0.69607,0.6109 -1.04446,0.9354 -0.34829,0.3245 -0.69748,0.6623 -1.04906,1.0142 -0.45799,0.4583 -0.89687,0.9205 -1.31736,1.3875 -0.42048,0.4668 -0.82267,0.9389 -1.20735,1.4173 -0.38449,0.4781 -0.75168,0.9627 -1.10206,1.4548 -0.35039,0.4921 -0.68388,0.9921 -1.00167,1.5005 -0.31779,0.5087 -0.61988,1.0261 -0.90647,1.5537 -0.28809,0.5276 -0.55848,1.0654 -0.81567,1.6146 -0.25609,0.5491 -0.50028,1.1099 -0.72987,1.6832 -0.22989,0.5733 -0.44559,1.1594 -0.64898,1.7595 -0.23859,0.7016 -0.44988,1.4152 -0.63728,2.1384 -0.18629,0.7232 -0.34888,1.4554 -0.48538,2.1948 -0.13679,0.7392 -0.24739,1.4854 -0.33289,2.2353 -0.084,0.7503 -0.14559,1.5046 -0.18049,2.2604 -0.035,0.7555 -0.044,1.5127 -0.029,2.2685 0.029,0.756 0.061,1.5106 0.1281,2.2615 0.07,0.7508 0.16289,1.4978 0.28519,2.2385 0.11929,0.7403 0.26769,1.4745 0.44088,2.1992 0.1135,0.4703 0.23569,0.9368 0.36839,1.3995 0.13389,0.4627 0.27639,0.9216 0.43098,1.3765 0.1542,0.4551 0.31809,0.9059 0.49238,1.3523 0.1746,0.4467 0.35849,0.8891 0.55258,1.3268 0.195,0.4374 0.39839,0.8704 0.61198,1.2985 0.21249,0.4284 0.43709,0.8515 0.66998,1.2697 0.23279,0.4182 0.47518,0.8312 0.72687,1.2389 0.25029,0.4077 0.51248,0.8099 0.78277,1.2062 0.2707,0.3967 0.54919,0.7872 0.83758,1.1723 0.28808,0.385 0.58517,0.7639 0.89106,1.1367 0.30579,0.3728 0.62038,0.7391 0.94377,1.0994 0.32329,0.36 0.65498,0.7136 0.99516,1.0605 0.34019,0.3469 0.68918,0.6868 1.04597,1.0197 0.35668,0.3329 0.72197,0.6592 1.09496,0.9778 0.37309,0.3187 0.75407,0.6304 1.14316,0.9342 0.38908,0.3038 0.78567,0.6004 1.19016,0.8888 0.33728,0.2415 0.65827,0.4592 0.90446,0.6175 0.2445,0.1572 0.41669,0.2561 0.45249,0.2561 0.073,0 0.23289,-0.082 0.35509,-0.1804 0.055,-0.044 0.096,-0.079 0.12509,-0.1135 0.029,-0.035 0.044,-0.07 0.05,-0.1193 0,-0.096 -0.029,-0.2358 -0.1019,-0.5055 -0.078,-0.2823 -0.13379,-0.5108 -0.17169,-0.7095 -0.038,-0.1979 -0.052,-0.3661 -0.047,-0.5233 0,-0.1571 0.032,-0.3038 0.082,-0.461 0.049,-0.1571 0.12219,-0.3236 0.21529,-0.5215 0.16879,-0.353 0.33469,-0.7662 0.49238,-1.2231 0.1572,-0.4569 0.30759,-0.9577 0.44499,-1.4854 0.13679,-0.5279 0.26189,-1.0831 0.37158,-1.6492 0.1106,-0.566 0.2008,-1.1428 0.27359,-1.714 0.035,-0.2852 0.067,-0.5108 0.099,-0.6903 0.032,-0.1805 0.067,-0.3129 0.1048,-0.413 0.041,-0.1018 0.084,-0.1688 0.14259,-0.2153 0.058,-0.047 0.1251,-0.076 0.20949,-0.096 0.1222,-0.032 0.2445,-0.079 0.36489,-0.1397 0.1223,-0.064 0.24159,-0.1397 0.35619,-0.2299 0.11639,-0.09 0.22699,-0.1891 0.33469,-0.3 0.10769,-0.1106 0.20659,-0.2299 0.30119,-0.3553 0.093,-0.1252 0.18039,-0.259 0.25609,-0.3935 0.076,-0.1368 0.14259,-0.2765 0.19789,-0.4159 0.055,-0.1396 0.099,-0.2822 0.128,-0.4211 0.029,-0.1396 0.047,-0.2764 0.047,-0.4106 0,-0.1309 0,-0.2241 -0.047,-0.2765 -0.029,-0.029 -0.035,-0.041 -0.061,-0.049 -0.029,0 -0.052,0 -0.087,0 -0.067,0.029 -0.15709,0.099 -0.26769,0.2124 -0.1106,0.1135 -0.24449,0.2678 -0.40339,0.4677 -0.12219,0.1542 -0.25019,0.2983 -0.38178,0.4348 -0.1309,0.1367 -0.27059,0.2648 -0.41259,0.3859 -0.14259,0.1193 -0.29109,0.2328 -0.44528,0.3367 -0.1542,0.1047 -0.31369,0.2008 -0.47958,0.2881 -0.1659,0.087 -0.33809,0.1688 -0.51679,0.2415 -0.17759,0.073 -0.36318,0.1397 -0.55498,0.1979 -0.19209,0.058 -0.39048,0.1106 -0.59598,0.1542 -0.20659,0.044 -0.41848,0.082 -0.63877,0.1106 -0.23569,0.032 -0.47809,0.05 -0.72578,0.055 -0.24729,0 -0.49998,0 -0.75457,-0.029 -0.25609,-0.029 -0.51158,-0.055 -0.76827,-0.1018 -0.25609,-0.047 -0.51328,-0.1048 -0.76708,-0.1746 -0.25319,-0.07 -0.50488,-0.1514 -0.75077,-0.2416 -0.24739,-0.09 -0.48688,-0.1921 -0.71997,-0.305 -0.2328,-0.1106 -0.45829,-0.2328 -0.67368,-0.3643 -0.21539,-0.131 -0.42048,-0.2707 -0.61288,-0.4197 -0.22119,-0.1717 -0.44168,-0.3809 -0.64168,-0.5998 -0.20079,-0.2182 -0.37918,-0.447 -0.51738,-0.6536 -0.13969,-0.2066 -0.23569,-0.3923 -0.27069,-0.5259 -0.029,-0.067 -0.029,-0.1193 0,-0.1571 0.029,-0.038 0.05,-0.058 0.1019,-0.058 0.058,0 0.73367,0.073 1.50045,0.163 0.42978,0.049 0.89976,0.087 1.36075,0.1076 0.46068,0.029 0.91227,0.029 1.30425,0 0.58728,-0.029 0.91787,-0.035 1.17776,-0.084 0.13089,-0.029 0.24149,-0.055 0.36049,-0.1018 0.11639,-0.044 0.24159,-0.1019 0.39468,-0.1746 0.2037,-0.099 0.40329,-0.2096 0.59918,-0.3344 0.19489,-0.1251 0.38909,-0.2648 0.58028,-0.4194 0.19199,-0.1542 0.38119,-0.3265 0.57118,-0.5159 0.18919,-0.1892 0.38009,-0.397 0.57218,-0.6248 0.19199,-0.227 0.38579,-0.4756 0.58318,-0.7453 0.19779,-0.2707 0.39839,-0.562 0.60438,-0.878 0.41238,-0.6321 0.84567,-1.3608 1.31305,-2.2016 0.24439,-0.442 0.51188,-0.8838 0.74667,-1.2464 0.2357,-0.3623 0.43859,-0.6455 0.55959,-0.7695 0.14259,-0.1455 0.31868,-0.298 0.51748,-0.4487 0.19789,-0.1513 0.41958,-0.3003 0.65157,-0.4421 0.2328,-0.1426 0.47549,-0.2764 0.71908,-0.3943 0.24439,-0.1193 0.48708,-0.2241 0.71957,-0.3058 0.29109,-0.1048 0.50118,-0.195 0.67488,-0.3018 0.17459,-0.1077 0.31169,-0.2299 0.45838,-0.3949 0.1193,-0.1339 0.24729,-0.259 0.38959,-0.3781 0.14259,-0.1193 0.29889,-0.2299 0.47268,-0.337 0.1746,-0.1047 0.36429,-0.2066 0.57558,-0.3026 0.21239,-0.096 0.44349,-0.1892 0.69958,-0.2765 0.25609,-0.087 0.53598,-0.1746 0.84357,-0.2561 0.30769,-0.081 0.64257,-0.163 1.00836,-0.2415 0.73187,-0.1601 1.58684,-0.3146 2.59291,-0.4753 0.058,0 0.12509,-0.035 0.20659,-0.076 0.082,-0.041 0.1746,-0.099 0.28229,-0.1746 0.21529,-0.1514 0.48448,-0.3725 0.82387,-0.6743 0.35119,-0.312 0.68298,-0.5952 0.99927,-0.8524 0.31629,-0.2561 0.61727,-0.4881 0.90646,-0.6958 0.29099,-0.2096 0.56748,-0.3932 0.83817,-0.5576 0.2706,-0.163 0.53399,-0.3088 0.79408,-0.436 0.49938,-0.2444 0.96506,-0.4435 1.03426,-0.4435 0.035,0 0.131,-0.093 0.25899,-0.2415 0.1281,-0.1484 0.28519,-0.3551 0.44468,-0.5815 0.1863,-0.2648 0.37949,-0.5174 0.58258,-0.7578 0.2037,-0.2386 0.41499,-0.4688 0.63728,-0.6862 0.22119,-0.2183 0.45459,-0.4243 0.69818,-0.621 0.24439,-0.1979 0.49818,-0.3836 0.76507,-0.5614 0.19499,-0.1281 0.34599,-0.2328 0.46678,-0.3225 0.1222,-0.09 0.2095,-0.1658 0.28229,-0.2415 0.073,-0.076 0.1251,-0.1513 0.1717,-0.2357 0.047,-0.087 0.084,-0.1834 0.13089,-0.3073 0.064,-0.1717 0.1077,-0.31 0.1281,-0.4203 0.029,-0.1106 0.029,-0.192 0,-0.2561 -0.029,-0.061 -0.07,-0.1018 -0.1455,-0.1251 -0.073,-0.029 -0.17459,-0.035 -0.30299,-0.035 -0.11049,0 -0.21819,0 -0.30439,-0.032 -0.084,-0.029 -0.14549,-0.047 -0.16289,-0.073 -0.029,-0.035 0,-0.1106 0.029,-0.2066 0.038,-0.096 0.099,-0.2154 0.17749,-0.3452 0.079,-0.128 0.1746,-0.2648 0.27649,-0.3957 0.1018,-0.131 0.2124,-0.2561 0.31979,-0.3594 0.19789,-0.1892 0.60118,-0.5125 0.89867,-0.7189 0.128,-0.09 0.22689,-0.16 0.31019,-0.2328 0.082,-0.073 0.14549,-0.1455 0.20659,-0.2357 0.061,-0.093 0.1164,-0.2037 0.1775,-0.3524 0.061,-0.1484 0.13389,-0.3376 0.22119,-0.5829 0.16009,-0.4365 0.29599,-0.7831 0.42898,-1.0617 0.067,-0.1396 0.1309,-0.2619 0.1978,-0.3693 0.067,-0.1076 0.13389,-0.2008 0.20669,-0.2822 0.073,-0.081 0.14839,-0.1514 0.22989,-0.2125 0.082,-0.061 0.16879,-0.1135 0.26769,-0.16 0.19209,-0.09 0.42109,-0.1572 0.70138,-0.2183 0.055,0 0.11049,-0.041 0.17459,-0.093 0.061,-0.055 0.13089,-0.1339 0.21819,-0.2561 0.1717,-0.2416 0.40749,-0.6388 0.77877,-1.2933 0.49329,-0.8699 1.02607,-1.7394 1.18416,-1.9326 0.064,-0.079 0.1164,-0.1397 0.1688,-0.1863 0.049,-0.047 0.099,-0.082 0.15419,-0.1048 0.055,-0.029 0.1135,-0.038 0.18619,-0.047 0.073,0 0.163,0 0.27069,0 0.1921,0 0.33199,0.029 0.45539,0.055 0.12519,0.041 0.22989,0.1047 0.35069,0.2095 0.067,0.055 0.11929,0.1048 0.16009,0.1542 0.041,0.047 0.073,0.096 0.096,0.1485 0.044,0.1047 0.058,0.2328 0.058,0.4298 0,0.1018 0,0.1833 0,0.2561 0,0.07 0.029,0.1309 0.049,0.1862 0.05,0.1135 0.1397,0.2096 0.29359,0.3507 0.084,0.076 0.1484,0.1368 0.1979,0.195 0.05,0.058 0.084,0.1135 0.10769,0.1775 0.029,0.064 0.038,0.1397 0.044,0.2357 0,0.096 0,0.2125 0,0.3664 0,0.1775 -0.029,0.5 -0.076,0.8754 -0.047,0.3754 -0.11349,0.8044 -0.18339,1.1961 -0.1164,0.6437 -0.18039,1.0378 -0.20659,1.4487 -0.029,0.4112 -0.029,0.8393 0,1.552 0.029,0.4336 0.052,0.8963 0.093,1.2927 0.041,0.3963 0.087,0.7263 0.1281,0.8943 0.052,0.2008 0.096,0.6123 0.12799,1.1474 0.035,0.5352 0.061,1.1952 0.076,1.8975 0,0.7022 0.029,1.4463 0,2.1491 0,0.7031 -0.029,1.3652 -0.067,1.9027 -0.05,0.7526 -0.082,1.1673 -0.14549,1.4979 -0.032,0.1658 -0.073,0.3099 -0.1251,0.465 -0.055,0.1542 -0.12229,0.321 -0.20959,0.5294 -0.19199,0.4551 -0.41028,0.9082 -0.64888,1.3558 -0.23869,0.4473 -0.49858,0.8897 -0.77817,1.3236 -0.27939,0.4339 -0.57888,0.8593 -0.89577,1.2735 -0.31719,0.4144 -0.65177,0.8174 -1.00216,1.2059 -0.1514,0.1659 -0.26489,0.2972 -0.35679,0.4104 -0.09,0.1135 -0.15709,0.2095 -0.20949,0.3044 -0.052,0.096 -0.087,0.192 -0.1193,0.3052 -0.032,0.1135 -0.055,0.2445 -0.087,0.4136 -0.044,0.2415 -0.1048,0.4889 -0.1863,0.745 -0.082,0.2561 -0.18329,0.5197 -0.30699,0.7933 -0.12219,0.2735 -0.26779,0.557 -0.43158,0.8515 -0.1659,0.2945 -0.35129,0.6004 -0.55988,0.9188 l -0.69148,1.0549 -0.099,1.2729 c -0.038,0.4764 -0.058,0.9327 -0.067,1.359 0,0.4267 0,0.8239 0.029,1.1819 0.029,0.3579 0.052,0.6769 0.099,0.9475 0.047,0.2707 0.1048,0.4933 0.1746,0.658 0.058,0.1368 0.10769,0.2416 0.15419,0.3195 0.047,0.079 0.096,0.1339 0.1543,0.1688 0.058,0.035 0.12799,0.055 0.21819,0.061 0.09,0 0.20379,0 0.35009,0 0.067,0 0.13679,0 0.22409,0.038 0.087,0.035 0.19499,0.093 0.33609,0.1891 0.28519,0.1921 0.71097,0.5294 1.41695,1.105 l 1.65964,1.3544 0.47258,1.1795 c 0.1309,0.3242 0.29209,0.6923 0.44869,1.0244 0.15719,0.3318 0.30758,0.6274 0.41528,0.8064 0.19499,0.323 0.41209,0.6478 0.63438,0.9516 0.22119,0.3039 0.44818,0.5867 0.65827,0.8259 0.2095,0.2387 0.40449,0.4351 0.56308,0.5646 0.079,0.064 0.1484,0.1135 0.2095,0.1426 0.058,0.029 0.10479,0.038 0.13969,0.029 0.073,-0.029 0.23869,-0.1397 0.46569,-0.3085 0.22699,-0.1688 0.51128,-0.3928 0.82467,-0.6484 0.62687,-0.5113 1.36595,-1.1463 1.96433,-1.6977 0.32879,-0.3036 0.65097,-0.6138 0.96586,-0.9304 0.31449,-0.3167 0.62208,-0.64 0.92217,-0.9694 0.30029,-0.3294 0.59338,-0.665 0.87887,-1.0066 0.28519,-0.3417 0.56338,-0.6892 0.83397,-1.0427 0.27069,-0.3536 0.53338,-0.713 0.78867,-1.078 0.25609,-0.3649 0.50278,-0.7351 0.74257,-1.1108 0.2387,-0.376 0.47179,-0.7569 0.69588,-1.1434 0.22399,-0.3862 0.43998,-0.7776 0.64808,-1.1737 0.20949,-0.3963 0.40828,-0.7974 0.59998,-1.203 0.19209,-0.4057 0.37568,-0.8163 0.55118,-1.231 0.17459,-0.415 0.34258,-0.8341 0.50118,-1.2575 0.15999,-0.4234 0.30929,-0.8512 0.45098,-1.2828 0.1426,-0.4316 0.27359,-0.8672 0.39989,-1.3064 0.12509,-0.4394 0.24149,-0.8824 0.34779,-1.3291 0.10759,-0.4464 0.20659,-0.8963 0.29499,-1.3497 0.09,-0.4531 0.16879,-0.9097 0.24159,-1.3695 0.05,-0.3228 0.09,-0.601 0.12219,-0.8795 0.032,-0.2794 0.055,-0.5582 0.07,-0.8832 0.032,-0.6504 0.041,-1.4845 0.041,-2.8654 0,-1.2621 0,-2.1113 -0.035,-2.7673 -0.029,-0.6556 -0.073,-1.1183 -0.14549,-1.6067 -0.079,-0.5296 -0.1688,-1.0537 -0.2706,-1.572 -0.10189,-0.5186 -0.21249,-1.0317 -0.33438,-1.5389 -0.1222,-0.5073 -0.25609,-1.0087 -0.39869,-1.5046 -0.14259,-0.4956 -0.29769,-0.9857 -0.46268,-1.4699 -0.1659,-0.4843 -0.33989,-0.9624 -0.52588,-1.4347 -0.1862,-0.4724 -0.38239,-0.9389 -0.58928,-1.3992 -0.2066,-0.4604 -0.42459,-0.9147 -0.65248,-1.3632 -0.22699,-0.4481 -0.46618,-0.8902 -0.71467,-1.3261 -0.2474,-0.4357 -0.50809,-0.8655 -0.77758,-1.289 -0.27069,-0.4231 -0.54918,-0.8404 -0.83927,-1.251 -0.29099,-0.4107 -0.59048,-0.8146 -0.90097,-1.2124 -0.31048,-0.3978 -0.63147,-0.7892 -0.96266,-1.1737 -0.33089,-0.3847 -0.67218,-0.7627 -1.02346,-1.1344 -0.35119,-0.3713 -0.71298,-0.7362 -1.08457,-1.0942 -0.37128,-0.3579 -0.75317,-0.7092 -1.14486,-1.0535 -0.39168,-0.3445 -0.79327,-0.6821 -1.20475,-1.0127 -0.59018,-0.4738 -1.19486,-0.9237 -1.81354,-1.35 -0.61868,-0.4261 -1.25075,-0.8286 -1.89473,-1.2066 -0.64428,-0.3783 -1.30056,-0.7325 -1.96723,-1.0625 -0.66668,-0.33 -1.34385,-0.6356 -2.03003,-0.917 -0.68618,-0.2823 -1.38175,-0.5384 -2.08453,-0.7706 -0.70277,-0.2328 -1.41315,-0.44 -2.12922,-0.6231 -0.71647,-0.1833 -1.43905,-0.3413 -2.16572,-0.4749 -0.72698,-0.1339 -1.45825,-0.2416 -2.19273,-0.3251 -0.73417,-0.084 -1.47164,-0.1426 -2.21052,-0.1746 -0.55408,-0.029 -1.10896,-0.035 -1.66424,-0.032 z m 7.89912,42.4864 c -0.052,0 -0.23869,0.079 -0.45458,0.1776 -0.1222,0.055 -0.27059,0.1076 -0.40979,0.1455 -0.13959,0.038 -0.27059,0.061 -0.35729,0.061 -0.093,0 -0.17749,0.029 -0.24449,0.044 -0.067,0.029 -0.11349,0.064 -0.13089,0.1077 -0.041,0.1077 -0.1048,0.7959 -0.1659,1.738 -0.061,0.942 -0.12219,2.1384 -0.16009,3.2643 l -0.067,1.9475 0.36609,0.5433 c 0.20079,0.2989 0.36609,0.6013 0.36609,0.672 0,0.044 0,0.076 0.038,0.096 0.029,0.029 0.067,0.029 0.131,0.029 0.1251,0 0.33609,-0.073 0.67308,-0.1921 0.31808,-0.1105 0.68387,-0.2037 0.81277,-0.2037 0.084,0 0.16879,-0.029 0.24739,-0.047 0.082,-0.029 0.15419,-0.073 0.22119,-0.1252 0.064,-0.049 0.1193,-0.1106 0.15709,-0.1746 0.038,-0.064 0.061,-0.128 0.061,-0.195 0,-0.061 -0.029,-0.1571 -0.067,-0.2619 -0.041,-0.1047 -0.096,-0.2182 -0.15719,-0.3169 -0.049,-0.082 -0.09,-0.1484 -0.1193,-0.2241 -0.029,-0.076 -0.049,-0.1542 -0.064,-0.259 -0.029,-0.2066 -0.029,-0.5002 0,-1.0162 0,-0.4357 0,-0.8591 -0.047,-1.3946 -0.047,-0.5351 -0.128,-1.1818 -0.25319,-2.0639 -0.1804,-1.2732 -0.33869,-2.3272 -0.34999,-2.3424 0,0 0,0 0,0 z m -7.45183,0.2474 c -0.087,0 -0.1659,0.029 -0.2532,0.044 -0.14839,0.041 -0.26769,0.09 -0.37158,0.16 -0.1019,0.07 -0.1863,0.1601 -0.25899,0.2823 -0.073,0.1222 -0.1339,0.2765 -0.1892,0.477 -0.055,0.1979 -0.10479,0.4429 -0.15999,0.7427 -0.058,0.3308 -0.1194,0.6329 -0.18629,0.9169 -0.067,0.2852 -0.1397,0.5501 -0.2241,0.8082 -0.081,0.259 -0.17459,0.5078 -0.27939,0.7607 -0.10469,0.2532 -0.22109,0.5078 -0.35528,0.7762 -0.1775,0.3591 -0.37829,0.7098 -0.59688,1.0488 -0.21819,0.3393 -0.45569,0.667 -0.70918,0.9798 -0.25319,0.3132 -0.52348,0.6118 -0.80727,0.8929 -0.28509,0.2823 -0.58168,0.5451 -0.89097,0.7884 -0.37138,0.2924 -0.64117,0.4961 -0.83667,0.6591 -0.099,0.082 -0.17749,0.1542 -0.24159,0.2212 -0.064,0.067 -0.11349,0.1309 -0.15129,0.195 -0.038,0.064 -0.064,0.1309 -0.082,0.2037 -0.029,0.073 -0.029,0.1542 -0.032,0.2502 0,0.1892 0,0.436 0,0.7838 0,0.6684 0.029,1.2411 0.058,1.2732 0.029,0.029 0.11929,0 0.27059,-0.032 0.15129,-0.035 0.35419,-0.09 0.56888,-0.1571 0.42988,-0.1368 1.46935,-0.4505 2.30972,-0.6993 0.81457,-0.2416 1.87413,-0.5239 2.93509,-0.7881 1.06136,-0.2648 2.12383,-0.5093 2.9445,-0.6752 0.10469,-0.029 0.20079,-0.041 0.29359,-0.061 0.093,-0.029 0.17749,-0.041 0.25899,-0.061 0.16009,-0.041 0.30119,-0.084 0.41938,-0.128 0.1193,-0.044 0.2153,-0.09 0.29179,-0.1397 0.076,-0.05 0.1339,-0.1048 0.1688,-0.163 0.038,-0.058 0.055,-0.1222 0.052,-0.195 0,-0.07 -0.029,-0.1484 -0.058,-0.2328 -0.038,-0.087 -0.09,-0.1804 -0.16,-0.2823 -0.07,-0.1047 -0.15719,-0.2182 -0.25909,-0.3425 l -0.48298,-0.589 -0.052,-3.6619 -0.049,-3.6619 -0.48018,0.032 c -0.1309,0 -0.31829,0 -0.51188,-0.029 -0.19499,-0.029 -0.39459,-0.064 -0.55638,-0.1135 -0.50318,-0.1485 -0.81537,-0.2329 -1.04477,-0.2678 -0.11339,-0.029 -0.20949,-0.029 -0.29498,-0.029 z m -8.40751,5.8736 c -0.05,0 -0.18909,0.067 -0.39288,0.1659 -0.23279,0.1135 -0.54388,0.2764 -0.89717,0.4691 -0.70678,0.3847 -1.57724,0.8844 -2.28642,1.3224 -0.067,0.041 -0.13379,0.1193 -0.19199,0.2212 -0.058,0.1018 -0.1106,0.224 -0.1397,0.3503 -0.064,0.2561 -0.14259,0.5227 -0.23579,0.7974 -0.093,0.2736 -0.20079,0.5567 -0.31749,0.8428 -0.11929,0.2852 -0.25019,0.5762 -0.38928,0.8664 -0.1397,0.291 -0.29189,0.5805 -0.45199,0.8672 l -0.68707,1.2293 0,0.8136 c 0,0.4759 0.029,0.9208 0.076,1.247 0.029,0.163 0.052,0.2963 0.082,0.3888 0.032,0.093 0.064,0.1456 0.099,0.1456 0.052,0 0.50028,-0.2008 0.99266,-0.4497 l 0,0 c 0.1339,-0.067 0.27359,-0.1338 0.41849,-0.2008 0.14259,-0.067 0.29099,-0.1309 0.44028,-0.1949 0.29889,-0.1252 0.60758,-0.2474 0.91607,-0.3565 0.30849,-0.1106 0.61668,-0.2096 0.91497,-0.2969 0.29859,-0.087 0.58698,-0.16 0.85557,-0.2182 l 0.79387,-0.1688 0.029,-1.3003 c 0,-0.5628 0,-0.9036 0,-1.1545 0,-0.1251 -0.032,-0.227 -0.058,-0.3247 -0.029,-0.096 -0.061,-0.1863 -0.1077,-0.2881 -0.073,-0.163 -0.12519,-0.3062 -0.15719,-0.4374 -0.032,-0.131 -0.044,-0.2532 -0.032,-0.3711 0,-0.1193 0.044,-0.2357 0.099,-0.3635 0.055,-0.1251 0.13379,-0.2619 0.23569,-0.415 0.10769,-0.1629 0.19499,-0.3163 0.26769,-0.4749 0.073,-0.1601 0.12809,-0.321 0.17169,-0.4976 0.044,-0.1776 0.073,-0.3679 0.093,-0.5841 0.029,-0.2154 0.029,-0.4569 0.029,-0.7337 0,-0.3137 0,-0.5279 -0.029,-0.6684 0,-0.07 -0.029,-0.1223 -0.044,-0.1601 -0.029,-0.038 -0.041,-0.058 -0.067,-0.07 0,0 0,0 -0.029,0 z"
       id="path5795-0-0"
       inkscape:connector-curvature="0"
       inkscape:export-filename="/media/niesoft/hard/Projects/leapp/leapp/icons/icon64.png"
       inkscape:export-xdpi="90"
       inkscape:export-ydpi="90" />
  </g>
</svg>
